<svg width="1538" height="295" viewBox="0 0 1538 295" fill="none" xmlns="http://www.w3.org/2000/svg">
<path d="M322.945 257V95H372.145L373.645 122.9H376.045C379.845 112.5 386.045 104.8 394.645 99.8C403.445 94.6 413.045 92 423.445 92C434.445 92 444.545 94.6 453.745 99.8C462.945 105 469.745 114.1 474.145 127.1H476.545C480.145 115.3 486.645 106.5 496.045 100.7C505.645 94.9 516.445 92 528.445 92C538.845 92 548.145 94.2 556.345 98.6C564.545 102.8 571.045 109.8 575.845 119.6C580.845 129.4 583.345 142.4 583.345 158.6V257H532.645V169.7C532.645 161.5 531.745 154.7 529.945 149.3C528.345 143.9 525.645 139.9 521.845 137.3C518.245 134.5 513.445 133.1 507.445 133.1C501.245 133.1 495.945 134.7 491.545 137.9C487.345 141.1 484.145 145.2 481.945 150.2C479.745 155.2 478.645 160.5 478.645 166.1V257H427.645V169.7C427.645 161.5 426.845 154.7 425.245 149.3C423.645 143.9 420.945 139.9 417.145 137.3C413.545 134.5 408.745 133.1 402.745 133.1C396.545 133.1 391.245 134.7 386.845 137.9C382.645 141.1 379.345 145.2 376.945 150.2C374.745 155.2 373.645 160.5 373.645 166.1V257H322.945ZM671.4 260C661.8 260 653.1 258.3 645.3 254.9C637.5 251.3 630.7 246 624.9 239C619.3 232 615 223.3 612 212.9C609 202.3 607.5 190 607.5 176C607.5 157.2 610.1 141.6 615.3 129.2C620.7 116.6 628.2 107.3 637.8 101.3C647.4 95.1 658.6 92 671.4 92C679.6 92 686.9 93.2 693.3 95.6C699.9 98 705.5 101.4 710.1 105.8C714.9 110.2 718.6 115.4 721.2 121.4H723.9L725.7 95H774.6V257H723.9V230.6H721.2C717.4 239.4 711.2 246.5 702.6 251.9C694 257.3 683.6 260 671.4 260ZM691.2 219.2C698.8 219.2 704.9 217.5 709.5 214.1C714.1 210.5 717.5 206 719.7 200.6C722.1 195 723.3 189.2 723.3 183.2V168.8C723.3 162.6 722.1 156.8 719.7 151.4C717.5 145.8 714.1 141.3 709.5 137.9C704.9 134.5 698.8 132.8 691.2 132.8C684.8 132.8 679.2 134.3 674.4 137.3C669.6 140.3 665.8 145 663 151.4C660.4 157.6 659.1 165.8 659.1 176C659.1 186 660.4 194.2 663 200.6C665.8 207 669.6 211.7 674.4 214.7C679.2 217.7 684.8 219.2 691.2 219.2ZM878.936 260C861.736 260 847.036 256.6 834.836 249.8C822.836 242.8 813.636 233.1 807.236 220.7C800.836 208.3 797.636 193.8 797.636 177.2C797.636 159.8 800.836 144.7 807.236 131.9C813.836 119.1 823.136 109.3 835.136 102.5C847.136 95.5 861.136 92 877.136 92C896.136 92 911.736 96.2 923.936 104.6C936.136 112.8 944.836 124.1 950.036 138.5C955.436 152.9 957.236 169.3 955.436 187.7H847.436C847.236 195.1 848.436 201.4 851.036 206.6C853.836 211.6 857.536 215.5 862.136 218.3C866.936 220.9 872.536 222.2 878.936 222.2C886.136 222.2 892.236 220.6 897.236 217.4C902.236 214.2 905.436 210.1 906.836 205.1H954.236C953.036 216.1 949.036 225.7 942.236 233.9C935.636 242.1 926.836 248.5 915.836 253.1C905.036 257.7 892.736 260 878.936 260ZM847.436 161.3L843.236 156.8H910.136L905.636 161.3C906.036 154.3 905.036 148.5 902.636 143.9C900.436 139.3 897.136 135.8 892.736 133.4C888.336 131 883.136 129.8 877.136 129.8C870.936 129.8 865.636 131.1 861.236 133.7C856.836 136.1 853.436 139.7 851.036 144.5C848.636 149.3 847.436 154.9 847.436 161.3ZM981.832 257V38.3H1033.43V157.4L1046.33 141.8L1088.33 95H1150.73L1088.33 159.5L1151.33 257H1091.63L1062.53 210.2L1052.93 193.1L1033.43 212.6V257H981.832ZM1172.78 257V212.3H1220.48V257H1172.78ZM1307.14 260C1297.54 260 1288.84 258.3 1281.04 254.9C1273.24 251.3 1266.44 246 1260.64 239C1255.04 232 1250.74 223.3 1247.74 212.9C1244.74 202.3 1243.24 190 1243.24 176C1243.24 157.2 1245.84 141.6 1251.04 129.2C1256.44 116.6 1263.94 107.3 1273.54 101.3C1283.14 95.1 1294.34 92 1307.14 92C1315.34 92 1322.64 93.2 1329.04 95.6C1335.64 98 1341.24 101.4 1345.84 105.8C1350.64 110.2 1354.34 115.4 1356.94 121.4H1359.64L1361.44 95H1410.34V257H1359.64V230.6H1356.94C1353.14 239.4 1346.94 246.5 1338.34 251.9C1329.74 257.3 1319.34 260 1307.14 260ZM1326.94 219.2C1334.54 219.2 1340.64 217.5 1345.24 214.1C1349.84 210.5 1353.24 206 1355.44 200.6C1357.84 195 1359.04 189.2 1359.04 183.2V168.8C1359.04 162.6 1357.84 156.8 1355.44 151.4C1353.24 145.8 1349.84 141.3 1345.24 137.9C1340.64 134.5 1334.54 132.8 1326.94 132.8C1320.54 132.8 1314.94 134.3 1310.14 137.3C1305.34 140.3 1301.54 145 1298.74 151.4C1296.14 157.6 1294.84 165.8 1294.84 176C1294.84 186 1296.14 194.2 1298.74 200.6C1301.54 207 1305.34 211.7 1310.14 214.7C1314.94 217.7 1320.54 219.2 1326.94 219.2ZM1445.02 257V95H1495.72V257H1445.02ZM1445.02 76.1V38.3H1495.72V76.1H1445.02Z" fill="#18181B"/>
<path d="M221.25 263.125C232.356 263.125 243.007 258.713 250.86 250.86C258.713 243.007 263.125 232.356 263.125 221.25L263.125 202.812C263.125 199.041 261.627 195.425 258.96 192.758C256.294 190.092 252.677 188.594 248.906 188.594C245.135 188.594 241.519 190.092 238.852 192.758C236.186 195.425 234.687 199.041 234.687 202.813L234.687 221.25C234.687 224.814 233.272 228.232 230.752 230.752C228.232 233.272 224.814 234.688 221.25 234.688L202.812 234.688C199.041 234.688 195.425 236.186 192.758 238.852C190.092 241.519 188.594 245.135 188.594 248.906C188.594 252.677 190.092 256.294 192.758 258.96C195.425 261.627 199.041 263.125 202.813 263.125L221.25 263.125ZM92.1875 263.125C95.9585 263.125 99.5751 261.627 102.242 258.96C104.908 256.294 106.406 252.677 106.406 248.906C106.406 245.135 104.908 241.519 102.242 238.852C99.5751 236.186 95.9585 234.688 92.1875 234.688L73.75 234.688C70.1862 234.688 66.7683 233.272 64.2483 230.752C61.7282 228.232 60.3125 224.814 60.3125 221.25L60.3125 202.813C60.3125 199.041 58.8145 195.425 56.1479 192.758C53.4814 190.092 49.8648 188.594 46.0937 188.594C42.3227 188.594 38.7061 190.092 36.0396 192.758C33.373 195.425 31.875 199.041 31.875 202.813L31.875 221.25C31.875 232.356 36.2868 243.007 44.1399 250.86C51.993 258.713 62.6441 263.125 73.75 263.125L92.1875 263.125ZM147.5 120.382C147.658 120.557 147.845 120.783 148.062 121.07C149.215 122.602 150.525 125.029 151.95 128.303C154.781 134.809 157.584 143.504 160.376 152.26C160.49 152.619 160.605 152.979 160.719 153.338C163.337 161.554 165.967 169.809 168.495 175.565C169.761 178.447 171.278 181.379 173.147 183.28C174.095 184.243 175.666 185.496 177.856 185.752C180.33 186.041 182.321 184.937 183.629 183.629C193.211 174.047 198.594 161.051 198.594 147.5C198.594 133.949 193.211 120.953 183.629 111.371C174.047 101.789 161.051 96.4063 147.5 96.4063C133.949 96.4063 120.953 101.789 111.371 111.371C101.789 120.953 96.4062 133.949 96.4062 147.5C96.4062 161.051 101.789 174.047 111.371 183.629C112.679 184.937 114.67 186.041 117.144 185.752C119.334 185.496 120.905 184.243 121.853 183.28C123.722 181.379 125.239 178.447 126.505 175.565C129.033 169.809 131.663 161.554 134.281 153.338C134.395 152.979 134.51 152.619 134.624 152.26C137.416 143.504 140.219 134.809 143.05 128.303C144.475 125.029 145.785 122.602 146.938 121.07C147.155 120.783 147.342 120.557 147.5 120.382ZM234.687 92.1875C234.687 95.9585 236.186 99.5751 238.852 102.242C241.519 104.908 245.135 106.406 248.906 106.406C252.677 106.406 256.294 104.908 258.96 102.242C261.627 99.5751 263.125 95.9585 263.125 92.1875L263.125 73.75C263.125 62.6441 258.713 51.993 250.86 44.1399C243.007 36.2868 232.356 31.875 221.25 31.875L202.812 31.875C199.041 31.875 195.425 33.373 192.758 36.0396C190.092 38.7061 188.594 42.3227 188.594 46.0938C188.594 49.8648 190.092 53.4814 192.758 56.1479C195.425 58.8145 199.041 60.3125 202.812 60.3125L221.25 60.3125C224.814 60.3125 228.232 61.7282 230.752 64.2483C233.272 66.7683 234.687 70.1862 234.687 73.75L234.687 92.1875ZM31.875 92.1875C31.875 95.9585 33.373 99.5751 36.0396 102.242C38.7061 104.908 42.3227 106.406 46.0937 106.406C49.8648 106.406 53.4814 104.908 56.1479 102.242C58.8145 99.5751 60.3125 95.9585 60.3125 92.1875L60.3125 73.75C60.3125 70.1862 61.7282 66.7683 64.2482 64.2483C66.7683 61.7282 70.1861 60.3125 73.75 60.3125L92.1875 60.3125C95.9585 60.3125 99.5751 58.8145 102.242 56.1479C104.908 53.4814 106.406 49.8648 106.406 46.0938C106.406 42.3227 104.908 38.7061 102.242 36.0396C99.5751 33.373 95.9585 31.875 92.1875 31.875L73.75 31.875C62.644 31.875 51.993 36.2868 44.1399 44.1399C36.2868 51.993 31.875 62.6441 31.875 73.75L31.875 92.1875Z" fill="#18181B" stroke="#18181B" stroke-width="10"/>
</svg>
