<svg width="464" height="464" viewBox="0 0 464 464" fill="none" xmlns="http://www.w3.org/2000/svg">
<g clip-path="url(#clip0_195_3)">
<path d="M337.838 190.5C332.505 190.833 326.005 194.333 318.338 201C310.671 207.333 302.338 215.667 293.338 226C284.671 236 275.505 247.167 265.838 259.5C256.505 271.833 247.338 284.167 238.338 296.5C229.671 308.5 221.505 319.833 213.838 330.5C206.171 341.167 199.671 349.667 194.338 356C187.005 353 180.671 348.667 175.338 343C170.005 337 166.171 329.667 163.838 321C165.505 310.667 167.838 300 170.838 289C173.838 277.667 177.671 266 182.338 254C187.338 242 193.338 229.5 200.338 216.5C207.671 203.167 216.505 189.167 226.838 174.5C221.838 174.833 215.005 178.5 206.338 185.5C197.671 192.167 188.338 201 178.338 212C168.338 222.667 158.005 234.833 147.338 248.5C136.671 261.833 126.671 275 117.338 288C105.005 305.333 94.6712 320.5 86.3379 333.5C78.3379 346.5 72.5046 354.167 68.8379 356.5C60.1712 350.167 54.1712 343.333 50.8379 336C47.5046 328.667 45.0046 320.5 43.3379 311.5C43.6712 303.5 44.8379 293.5 46.8379 281.5C49.1712 269.5 52.3379 257.167 56.3379 244.5C64.0046 220.167 73.8379 196 85.8379 172C98.1712 148 110.005 126 121.338 106C130.671 108 139.005 111.167 146.338 115.5C154.005 119.833 162.005 126.167 170.338 134.5C167.005 144.833 161.838 155.833 154.838 167.5C147.838 178.833 140.505 190.833 132.838 203.5C125.171 216.167 118.171 229.167 111.838 242.5C105.505 255.833 101.338 269.333 99.3379 283C108.671 269.667 119.671 254.333 132.338 237C145.338 219.667 158.505 203.333 171.838 188C185.505 172.667 199.005 159.667 212.338 149C225.671 138.333 237.671 133 248.338 133C252.338 133 256.671 133.667 261.338 135C266.005 136.333 270.338 138 274.338 140C278.338 142 281.671 144 284.338 146C287.005 147.667 288.505 149 288.838 150C287.171 156.667 283.171 165.833 276.838 177.5C270.838 188.833 264.338 200.833 257.338 213.5C250.338 226.167 243.838 238.5 237.838 250.5C231.838 262.167 228.338 271.5 227.338 278.5C243.671 256.167 259.005 236 273.338 218C287.671 199.667 301.171 184 313.838 171C326.505 158 338.171 148 348.838 141C359.838 134 370.171 130.5 379.838 130.5C386.505 130.5 392.671 132.333 398.338 136C404.338 139.333 408.505 144.333 410.838 151C407.838 161 402.838 173 395.838 187C389.171 201 382.338 215.833 375.338 231.5C368.338 246.833 362.005 262 356.338 277C351.005 292 348.338 305.5 348.338 317.5C348.338 324.5 349.338 329.167 351.338 331.5C353.338 333.5 356.171 334.5 359.838 334.5C363.838 334.5 367.505 333.833 370.838 332.5C374.505 330.833 377.171 330 378.838 330C380.838 331.333 382.005 333 382.338 335C382.671 337 382.838 338.833 382.838 340.5C376.171 345.833 369.338 350.167 362.338 353.5C355.338 357.167 347.505 359 338.838 359C330.838 359 324.171 357.667 318.838 355C313.838 352.333 309.671 348.667 306.338 344C303.005 339.333 300.671 334 299.338 328C298.005 322 297.338 315.5 297.338 308.5C297.338 297.167 298.838 286 301.838 275C304.838 263.667 308.338 253 312.338 243C316.671 232.667 321.171 223.167 325.838 214.5C330.505 205.5 334.505 197.5 337.838 190.5Z" fill="#0F766E"/>
</g>
<defs>
<clipPath id="clip0_195_3">
<rect width="464" height="464" fill="white"/>
</clipPath>
</defs>
</svg>
