<svg width="800" height="800" viewBox="0 0 800 800" fill="none" xmlns="http://www.w3.org/2000/svg">
<path d="M600.02 700.01C626.539 700.01 651.971 689.475 670.723 670.723C689.475 651.971 700.01 626.539 700.01 600.02L700.01 550.024C700.01 543.395 697.376 537.036 692.688 532.348C688 527.661 681.642 525.027 675.012 525.027C668.382 525.027 662.024 527.661 657.336 532.348C652.648 537.036 650.015 543.395 650.015 550.024L650.015 600.02C650.015 613.279 644.747 625.996 635.371 635.371C625.996 644.747 613.279 650.015 600.02 650.015L550.024 650.015C543.395 650.015 537.036 652.648 532.348 657.336C527.661 662.024 525.027 668.382 525.027 675.012C525.027 681.642 527.661 688 532.348 692.688C537.036 697.376 543.395 700.01 550.024 700.01L600.02 700.01ZM250.054 700.01C256.683 700.01 263.042 697.376 267.73 692.688C272.418 688 275.051 681.642 275.051 675.012C275.051 668.382 272.418 662.024 267.73 657.336C263.042 652.648 256.683 650.015 250.054 650.015L200.059 650.015C186.799 650.015 174.083 644.747 164.707 635.371C155.331 625.996 150.063 613.279 150.063 600.02L150.063 550.024C150.063 543.395 147.43 537.036 142.742 532.349C138.054 527.661 131.696 525.027 125.066 525.027C118.436 525.027 112.078 527.661 107.39 532.349C102.702 537.036 100.068 543.395 100.068 550.024L100.068 600.02C100.068 626.539 110.603 651.972 129.355 670.723C148.107 689.475 173.539 700.01 200.059 700.01L250.054 700.01ZM400.039 311.659C433.188 311.659 464.979 511.859 488.419 488.419C511.858 464.979 525.027 433.188 525.027 400.039C525.027 366.89 511.858 335.099 488.419 311.659C464.979 288.22 433.188 275.051 400.039 275.051C366.89 275.051 335.099 288.22 311.659 311.659C288.22 335.099 275.051 366.89 275.051 400.039C275.051 433.188 288.22 464.979 311.659 488.419C335.099 511.859 366.89 311.659 400.039 311.659ZM650.015 250.054C650.015 256.683 652.648 263.042 657.336 267.73C662.024 272.418 668.382 275.051 675.012 275.051C681.642 275.051 688 272.418 692.688 267.73C697.376 263.042 700.01 256.683 700.01 250.054L700.01 200.059C700.01 173.539 689.475 148.107 670.723 129.355C651.971 110.603 626.539 100.068 600.019 100.068L550.024 100.068C543.395 100.068 537.036 102.702 532.348 107.39C527.66 112.078 525.027 118.436 525.027 125.066C525.027 131.696 527.66 138.054 532.348 142.742C537.036 147.43 543.395 150.063 550.024 150.063L600.019 150.063C613.279 150.063 625.995 155.331 635.371 164.707C644.747 174.083 650.015 186.799 650.015 200.059L650.015 250.054ZM100.068 250.054C100.068 256.683 102.702 263.042 107.39 267.73C112.078 272.418 118.436 275.051 125.066 275.051C131.696 275.051 138.054 272.418 142.742 267.73C147.43 263.042 150.063 256.683 150.063 250.054L150.063 200.059C150.063 186.799 155.331 174.083 164.707 164.707C174.083 155.331 186.799 150.063 200.058 150.063L250.054 150.063C256.683 150.063 263.042 147.43 267.73 142.742C272.417 138.054 275.051 131.696 275.051 125.066C275.051 118.436 272.417 112.078 267.73 107.39C263.042 102.702 256.683 100.068 250.054 100.068L200.058 100.068C173.539 100.068 148.106 110.603 129.355 129.355C110.603 148.107 100.068 173.54 100.068 200.059L100.068 250.054Z" fill="#18181B"/>
</svg>
