<svg width="801" height="801" viewBox="0 0 801 801" fill="none" xmlns="http://www.w3.org/2000/svg">
<rect width="801" height="801" rx="32" fill="#A1A1AA"/>
<path d="M601.02 701.01C627.539 701.01 652.971 690.475 671.723 671.723C690.475 652.971 701.01 627.539 701.01 601.02L701.01 551.024C701.01 544.395 698.376 538.036 693.688 533.348C689 528.661 682.642 526.027 676.012 526.027C669.382 526.027 663.024 528.661 658.336 533.348C653.648 538.036 651.015 544.395 651.015 551.024L651.015 601.02C651.015 614.279 645.747 626.996 636.371 636.371C626.996 645.747 614.279 651.015 601.02 651.015L551.024 651.015C544.395 651.015 538.036 653.648 533.348 658.336C528.661 663.024 526.027 669.382 526.027 676.012C526.027 682.642 528.661 689 533.348 693.688C538.036 698.376 544.395 701.01 551.024 701.01L601.02 701.01ZM251.054 701.01C257.683 701.01 264.042 698.376 268.73 693.688C273.418 689 276.051 682.642 276.051 676.012C276.051 669.382 273.418 663.024 268.73 658.336C264.042 653.648 257.683 651.015 251.054 651.015L201.059 651.015C187.799 651.015 175.083 645.747 165.707 636.371C156.331 626.996 151.063 614.279 151.063 601.02L151.063 551.024C151.063 544.395 148.43 538.036 143.742 533.349C139.054 528.661 132.696 526.027 126.066 526.027C119.436 526.027 113.078 528.661 108.39 533.349C103.702 538.036 101.068 544.395 101.068 551.024L101.068 601.02C101.068 627.539 111.603 652.972 130.355 671.723C149.107 690.475 174.539 701.01 201.059 701.01L251.054 701.01ZM401.039 312.659C434.188 312.659 465.979 512.859 489.419 489.419C512.858 465.979 526.027 434.188 526.027 401.039C526.027 367.89 512.858 336.099 489.419 312.659C465.979 289.22 434.188 276.051 401.039 276.051C367.89 276.051 336.099 289.22 312.659 312.659C289.22 336.099 276.051 367.89 276.051 401.039C276.051 434.188 289.22 465.979 312.659 489.419C336.099 512.859 367.89 312.659 401.039 312.659ZM651.015 251.054C651.015 257.683 653.648 264.042 658.336 268.73C663.024 273.418 669.382 276.051 676.012 276.051C682.642 276.051 689 273.418 693.688 268.73C698.376 264.042 701.01 257.683 701.01 251.054L701.01 201.059C701.01 174.539 690.475 149.107 671.723 130.355C652.971 111.603 627.539 101.068 601.019 101.068L551.024 101.068C544.395 101.068 538.036 103.702 533.348 108.39C528.66 113.078 526.027 119.436 526.027 126.066C526.027 132.696 528.66 139.054 533.348 143.742C538.036 148.43 544.395 151.063 551.024 151.063L601.019 151.063C614.279 151.063 626.995 156.331 636.371 165.707C645.747 175.083 651.015 187.799 651.015 201.059L651.015 251.054ZM101.068 251.054C101.068 257.683 103.702 264.042 108.39 268.73C113.078 273.418 119.436 276.051 126.066 276.051C132.696 276.051 139.054 273.418 143.742 268.73C148.43 264.042 151.063 257.683 151.063 251.054L151.063 201.059C151.063 187.799 156.331 175.083 165.707 165.707C175.083 156.331 187.799 151.063 201.058 151.063L251.054 151.063C257.683 151.063 264.042 148.43 268.73 143.742C273.417 139.054 276.051 132.696 276.051 126.066C276.051 119.436 273.417 113.078 268.73 108.39C264.042 103.702 257.683 101.068 251.054 101.068L201.058 101.068C174.539 101.068 149.106 111.603 130.355 130.355C111.603 149.107 101.068 174.54 101.068 201.059L101.068 251.054Z" fill="#18181B"/>
</svg>
