<svg width="1237" height="295" viewBox="0 0 1237 295" fill="none" xmlns="http://www.w3.org/2000/svg">
<path d="M31.9449 255V93H81.1449L82.6449 120.9H85.0449C88.8449 110.5 95.0449 102.8 103.645 97.8C112.445 92.6 122.045 90 132.445 90C143.445 90 153.545 92.6 162.745 97.8C171.945 103 178.745 112.1 183.145 125.1H185.545C189.145 113.3 195.645 104.5 205.045 98.7C214.645 92.9 225.445 90 237.445 90C247.845 90 257.145 92.2 265.345 96.6C273.545 100.8 280.045 107.8 284.845 117.6C289.845 127.4 292.345 140.4 292.345 156.6V255H241.645V167.7C241.645 159.5 240.745 152.7 238.945 147.3C237.345 141.9 234.645 137.9 230.845 135.3C227.245 132.5 222.445 131.1 216.445 131.1C210.245 131.1 204.945 132.7 200.545 135.9C196.345 139.1 193.145 143.2 190.945 148.2C188.745 153.2 187.645 158.5 187.645 164.1V255H136.645V167.7C136.645 159.5 135.845 152.7 134.245 147.3C132.645 141.9 129.945 137.9 126.145 135.3C122.545 132.5 117.745 131.1 111.745 131.1C105.545 131.1 100.245 132.7 95.8449 135.9C91.6449 139.1 88.3449 143.2 85.9449 148.2C83.7449 153.2 82.6449 158.5 82.6449 164.1V255H31.9449ZM380.4 258C370.8 258 362.1 256.3 354.3 252.9C346.5 249.3 339.7 244 333.9 237C328.3 230 324 221.3 321 210.9C318 200.3 316.5 188 316.5 174C316.5 155.2 319.1 139.6 324.3 127.2C329.7 114.6 337.2 105.3 346.8 99.3C356.4 93.1 367.6 90 380.4 90C388.6 90 395.9 91.2 402.3 93.6C408.9 96 414.5 99.4 419.1 103.8C423.9 108.2 427.6 113.4 430.2 119.4H432.9L434.7 93H483.6V255H432.9V228.6H430.2C426.4 237.4 420.2 244.5 411.6 249.9C403 255.3 392.6 258 380.4 258ZM400.2 217.2C407.8 217.2 413.9 215.5 418.5 212.1C423.1 208.5 426.5 204 428.7 198.6C431.1 193 432.3 187.2 432.3 181.2V166.8C432.3 160.6 431.1 154.8 428.7 149.4C426.5 143.8 423.1 139.3 418.5 135.9C413.9 132.5 407.8 130.8 400.2 130.8C393.8 130.8 388.2 132.3 383.4 135.3C378.6 138.3 374.8 143 372 149.4C369.4 155.6 368.1 163.8 368.1 174C368.1 184 369.4 192.2 372 198.6C374.8 205 378.6 209.7 383.4 212.7C388.2 215.7 393.8 217.2 400.2 217.2ZM587.936 258C570.736 258 556.036 254.6 543.836 247.8C531.836 240.8 522.636 231.1 516.236 218.7C509.836 206.3 506.636 191.8 506.636 175.2C506.636 157.8 509.836 142.7 516.236 129.9C522.836 117.1 532.136 107.3 544.136 100.5C556.136 93.5 570.136 90 586.136 90C605.136 90 620.736 94.2 632.936 102.6C645.136 110.8 653.836 122.1 659.036 136.5C664.436 150.9 666.236 167.3 664.436 185.7H556.436C556.236 193.1 557.436 199.4 560.036 204.6C562.836 209.6 566.536 213.5 571.136 216.3C575.936 218.9 581.536 220.2 587.936 220.2C595.136 220.2 601.236 218.6 606.236 215.4C611.236 212.2 614.436 208.1 615.836 203.1H663.236C662.036 214.1 658.036 223.7 651.236 231.9C644.636 240.1 635.836 246.5 624.836 251.1C614.036 255.7 601.736 258 587.936 258ZM556.436 159.3L552.236 154.8H619.136L614.636 159.3C615.036 152.3 614.036 146.5 611.636 141.9C609.436 137.3 606.136 133.8 601.736 131.4C597.336 129 592.136 127.8 586.136 127.8C579.936 127.8 574.636 129.1 570.236 131.7C565.836 134.1 562.436 137.7 560.036 142.5C557.636 147.3 556.436 152.9 556.436 159.3ZM690.832 255V36.3H742.432V155.4L755.332 139.8L797.332 93H859.732L797.332 157.5L860.332 255H800.632L771.532 208.2L761.932 191.1L742.432 210.6V255H690.832ZM881.777 255V210.3H929.477V255H881.777ZM1016.14 258C1006.54 258 997.842 256.3 990.042 252.9C982.242 249.3 975.442 244 969.642 237C964.042 230 959.742 221.3 956.742 210.9C953.742 200.3 952.242 188 952.242 174C952.242 155.2 954.842 139.6 960.042 127.2C965.442 114.6 972.942 105.3 982.542 99.3C992.142 93.1 1003.34 90 1016.14 90C1024.34 90 1031.64 91.2 1038.04 93.6C1044.64 96 1050.24 99.4 1054.84 103.8C1059.64 108.2 1063.34 113.4 1065.94 119.4H1068.64L1070.44 93H1119.34V255H1068.64V228.6H1065.94C1062.14 237.4 1055.94 244.5 1047.34 249.9C1038.74 255.3 1028.34 258 1016.14 258ZM1035.94 217.2C1043.54 217.2 1049.64 215.5 1054.24 212.1C1058.84 208.5 1062.24 204 1064.44 198.6C1066.84 193 1068.04 187.2 1068.04 181.2V166.8C1068.04 160.6 1066.84 154.8 1064.44 149.4C1062.24 143.8 1058.84 139.3 1054.24 135.9C1049.64 132.5 1043.54 130.8 1035.94 130.8C1029.54 130.8 1023.94 132.3 1019.14 135.3C1014.34 138.3 1010.54 143 1007.74 149.4C1005.14 155.6 1003.84 163.8 1003.84 174C1003.84 184 1005.14 192.2 1007.74 198.6C1010.54 205 1014.34 209.7 1019.14 212.7C1023.94 215.7 1029.54 217.2 1035.94 217.2ZM1154.02 255V93H1204.72V255H1154.02ZM1154.02 74.1V36.3H1204.72V74.1H1154.02Z" fill="#A1A1AA"/>
</svg>
